<svg xmlns="http://www.w3.org/2000/svg" viewBox="0 0 92.45 24"><defs><style>.cls-1{fill:#920f10;}.cls-2{fill:#646363;}</style></defs><title>资源 2</title><g id="图层_2" data-name="图层 2"><g id="图层_1-2" data-name="图层 1"><path class="cls-1" d="M0,4.25H11.19V0H0Zm0,8.43H11.19V8.43H0Zm6.93,7.07H4.25V15.6H0V24H11.19V15.6H6.93ZM17,8.43H12.76V24H24V19.75H17ZM12.76,0V4.25h7V8.43H24V0Zm7,16.82H24V12.57H19.75Z"/><path class="cls-2" d="M31.52,19.52a1.23,1.23,0,0,1,1.76.11,1,1,0,0,1,.18.49h-.55a.79.79,0,0,0-.13-.29.55.55,0,0,0-.43-.17.52.52,0,0,0-.46.24,1.14,1.14,0,0,0-.17.69,1.11,1.11,0,0,0,.17.66.58.58,0,0,0,.46.22.53.53,0,0,0,.43-.19.82.82,0,0,0,.13-.31h.55a1.21,1.21,0,0,1-.36.7,1.05,1.05,0,0,1-.74.27,1.08,1.08,0,0,1-.88-.37,1.41,1.41,0,0,1-.32-1A1.46,1.46,0,0,1,31.52,19.52Z"/><path class="cls-2" d="M35.29,19.94a.5.5,0,0,1,.24.19.43.43,0,0,1,.1.22,3,3,0,0,1,0,.38v1.14h-.52V20.69a.63.63,0,0,0-.05-.26.27.27,0,0,0-.26-.13.36.36,0,0,0-.31.13.63.63,0,0,0-.1.39v1.05H33.9V19.25h.51v.93a.71.71,0,0,1,.25-.24.81.81,0,0,1,.31-.06A.79.79,0,0,1,35.29,19.94Z"/><path class="cls-2" d="M36.68,19.7h-.52v-.47h.52Zm-.52.23h.52v1.94h-.52Z"/><path class="cls-2" d="M38.76,20a.62.62,0,0,1,.19.52v1.31h-.52V20.69a.52.52,0,0,0,0-.24.28.28,0,0,0-.28-.15.35.35,0,0,0-.35.22.67.67,0,0,0,0,.3v1.05H37.2V19.93h.49v.28a.81.81,0,0,1,.19-.21.61.61,0,0,1,.39-.12A.72.72,0,0,1,38.76,20Z"/><path class="cls-2" d="M40.24,20.69l.21-.05a.15.15,0,0,0,.1-.14.17.17,0,0,0-.08-.17.57.57,0,0,0-.25,0,.3.3,0,0,0-.25.09.3.3,0,0,0-.07.18h-.49a.7.7,0,0,1,.14-.42.82.82,0,0,1,.69-.26,1.2,1.2,0,0,1,.57.13.47.47,0,0,1,.25.47V21.6a.31.31,0,0,0,0,.13.12.12,0,0,0,.08.06v.08h-.56l0-.12s0-.07,0-.11a1.12,1.12,0,0,1-.24.19.8.8,0,0,1-.38.1.68.68,0,0,1-.43-.15.54.54,0,0,1-.17-.43.56.56,0,0,1,.27-.52,1.11,1.11,0,0,1,.45-.12Zm.31.23a.31.31,0,0,1-.1,0l-.13,0-.12,0a.79.79,0,0,0-.23.07.26.26,0,0,0,0,.4.28.28,0,0,0,.18.06.5.5,0,0,0,.31-.1.4.4,0,0,0,.14-.35Z"/><path class="cls-2" d="M42.88,21.06a.49.49,0,0,0,.09.26.6.6,0,0,0,.47.17.93.93,0,0,0,.32,0,.3.3,0,0,0,.24-.3.22.22,0,0,0-.12-.2,1,1,0,0,0-.36-.12l-.29-.07a1.5,1.5,0,0,1-.57-.2.63.63,0,0,1-.27-.56.77.77,0,0,1,.26-.59,1.33,1.33,0,0,1,1.48,0,.77.77,0,0,1,.31.64h-.53a.37.37,0,0,0-.21-.34.72.72,0,0,0-.32-.07.61.61,0,0,0-.35.09.27.27,0,0,0-.13.24.23.23,0,0,0,.13.21,2.1,2.1,0,0,0,.35.11l.46.1a1.19,1.19,0,0,1,.45.19.65.65,0,0,1,.23.54.74.74,0,0,1-.27.59,1.18,1.18,0,0,1-.79.24,1.32,1.32,0,0,1-.81-.23.77.77,0,0,1-.3-.64Z"/><path class="cls-2" d="M46.23,20a.74.74,0,0,1,.33.28,1.09,1.09,0,0,1,.16.4,2.25,2.25,0,0,1,0,.39H45.32a.48.48,0,0,0,.21.41.49.49,0,0,0,.28.07.43.43,0,0,0,.28-.09.34.34,0,0,0,.1-.13h.52a.72.72,0,0,1-.19.35.94.94,0,0,1-.73.28,1,1,0,0,1-.68-.24.92.92,0,0,1-.3-.77,1.06,1.06,0,0,1,.27-.78,1,1,0,0,1,.69-.26A1.14,1.14,0,0,1,46.23,20Zm-.76.43a.52.52,0,0,0-.13.3h.87a.39.39,0,0,0-.14-.3.44.44,0,0,0-.3-.11A.41.41,0,0,0,45.47,20.4Z"/><path class="cls-2" d="M48.26,20.62a.46.46,0,0,0-.08-.19.29.29,0,0,0-.26-.12.34.34,0,0,0-.35.25.92.92,0,0,0,0,.36.81.81,0,0,0,0,.34.33.33,0,0,0,.34.25.31.31,0,0,0,.25-.1.47.47,0,0,0,.09-.25h.52a.83.83,0,0,1-.17.44.81.81,0,0,1-.7.33.8.8,0,0,1-.69-.28,1.09,1.09,0,0,1-.22-.72,1.13,1.13,0,0,1,.24-.77.83.83,0,0,1,.67-.28,1.07,1.07,0,0,1,.6.16.77.77,0,0,1,.28.58Z"/><path class="cls-2" d="M49.67,19.93V21.1a.65.65,0,0,0,0,.24.27.27,0,0,0,.27.15.37.37,0,0,0,.36-.21.78.78,0,0,0,0-.3V19.93h.51v1.94h-.49v-.28l0,.05a.27.27,0,0,1-.07.08.65.65,0,0,1-.23.15,1,1,0,0,1-.26,0,.58.58,0,0,1-.57-.31,1.12,1.12,0,0,1-.09-.5V19.93Z"/><path class="cls-2" d="M52.5,19.88h0v.52H52.4a.42.42,0,0,0-.41.2.79.79,0,0,0-.06.35v.93h-.51V19.93h.48v.34a1.14,1.14,0,0,1,.21-.27.53.53,0,0,1,.37-.12Z"/><path class="cls-2" d="M53.39,19.7h-.52v-.47h.52Zm-.52.23h.52v1.94h-.52Z"/><path class="cls-2" d="M53.72,20.31V20H54v-.54h.51V20h.31v.36H54.5v1a.24.24,0,0,0,0,.15.31.31,0,0,0,.18,0h.1v.38h-.24a.64.64,0,0,1-.49-.12A.37.37,0,0,1,54,21.5V20.31Z"/><path class="cls-2" d="M55.72,19.7h-.51v-.47h.51Zm-.51.23h.51v1.94h-.51Z"/><path class="cls-2" d="M57.53,20a.77.77,0,0,1,.34.28.92.92,0,0,1,.15.4A2.07,2.07,0,0,1,58,21H56.63a.47.47,0,0,0,.2.41.51.51,0,0,0,.28.07.41.41,0,0,0,.28-.09.36.36,0,0,0,.11-.13H58a.62.62,0,0,1-.18.35,1,1,0,0,1-.73.28,1,1,0,0,1-.68-.24.92.92,0,0,1-.3-.77,1.06,1.06,0,0,1,.27-.78,1,1,0,0,1,.69-.26A1.06,1.06,0,0,1,57.53,20Zm-.75.43a.6.6,0,0,0-.14.3h.88a.43.43,0,0,0-.14-.3.44.44,0,0,0-.3-.11A.41.41,0,0,0,56.78,20.4Z"/><path class="cls-2" d="M58.79,21.25a.3.3,0,0,0,.07.19.46.46,0,0,0,.35.1.63.63,0,0,0,.23,0,.15.15,0,0,0,.09-.14.14.14,0,0,0-.07-.13,2.74,2.74,0,0,0-.53-.15,1,1,0,0,1-.46-.21.43.43,0,0,1-.14-.34.59.59,0,0,1,.21-.46.85.85,0,0,1,.6-.2,1.05,1.05,0,0,1,.59.15.6.6,0,0,1,.26.5h-.51a.25.25,0,0,0,0-.16.35.35,0,0,0-.29-.1.41.41,0,0,0-.23,0,.15.15,0,0,0-.07.12.14.14,0,0,0,.07.13,3.51,3.51,0,0,0,.53.14,1.16,1.16,0,0,1,.46.21.53.53,0,0,1,.14.37.59.59,0,0,1-.21.47,1.31,1.31,0,0,1-1.34,0,.61.61,0,0,1-.22-.49Z"/><path class="cls-2" d="M61.65,19.52a1.06,1.06,0,0,1,.8-.32,1.08,1.08,0,0,1,1,.43,1,1,0,0,1,.18.49H63a.79.79,0,0,0-.13-.29.56.56,0,0,0-.44-.17.55.55,0,0,0-.46.24,1.21,1.21,0,0,0-.17.69,1,1,0,0,0,.18.66.58.58,0,0,0,.45.22.52.52,0,0,0,.43-.19A.82.82,0,0,0,63,21h.54a1.11,1.11,0,0,1-.36.7,1,1,0,0,1-.74.27,1.11,1.11,0,0,1-.88-.37,1.45,1.45,0,0,1-.32-1A1.43,1.43,0,0,1,61.65,19.52Z"/><path class="cls-2" d="M65.11,19.88h0v.52H65a.43.43,0,0,0-.41.2.79.79,0,0,0-.06.35v.93H64V19.93h.49v.34a1.16,1.16,0,0,1,.2-.27.57.57,0,0,1,.37-.12Z"/><path class="cls-2" d="M66.77,20a.77.77,0,0,1,.34.28.92.92,0,0,1,.15.4,2.07,2.07,0,0,1,0,.39H65.87a.47.47,0,0,0,.2.41.51.51,0,0,0,.28.07.41.41,0,0,0,.28-.09.36.36,0,0,0,.11-.13h.51a.62.62,0,0,1-.18.35,1,1,0,0,1-.73.28,1.07,1.07,0,0,1-.69-.24,1,1,0,0,1-.29-.77,1.1,1.1,0,0,1,.26-.78,1,1,0,0,1,.7-.26A1.06,1.06,0,0,1,66.77,20ZM66,20.4a.53.53,0,0,0-.14.3h.87a.42.42,0,0,0-.13-.3.44.44,0,0,0-.3-.11A.41.41,0,0,0,66,20.4Z"/><path class="cls-2" d="M68.68,20a.63.63,0,0,1,.22.21v-.92h.51v2.62h-.49V21.6a.75.75,0,0,1-.25.25.68.68,0,0,1-.34.08.72.72,0,0,1-.57-.28,1,1,0,0,1-.24-.7,1.21,1.21,0,0,1,.23-.78.76.76,0,0,1,.61-.29A.66.66,0,0,1,68.68,20Zm.12,1.38a.68.68,0,0,0,.11-.41.63.63,0,0,0-.18-.51.35.35,0,0,0-.25-.1.37.37,0,0,0-.33.17.77.77,0,0,0-.1.42.78.78,0,0,0,.1.43.35.35,0,0,0,.32.16A.36.36,0,0,0,68.8,21.34Z"/><path class="cls-2" d="M70.43,19.7h-.51v-.47h.51Zm-.51.23h.51v1.94h-.51Z"/><path class="cls-2" d="M70.77,20.31V20H71v-.54h.5V20h.32v.36h-.32v1a.24.24,0,0,0,0,.15s.08,0,.19,0h.1v.38h-.24a.63.63,0,0,1-.49-.12A.37.37,0,0,1,71,21.5V20.31Z"/><path class="cls-2" d="M73.66,21.87h-.54V19.24h.54Z"/><path class="cls-2" d="M75.76,20a.62.62,0,0,1,.19.52v1.31h-.52V20.69a.52.52,0,0,0,0-.24.28.28,0,0,0-.28-.15.35.35,0,0,0-.35.22.67.67,0,0,0-.05.3v1.05H74.2V19.93h.49v.28a1,1,0,0,1,.18-.21.65.65,0,0,1,.4-.12A.72.72,0,0,1,75.76,20Z"/><path class="cls-2" d="M77.59,19.93h.54l-.69,1.94H76.9l-.69-1.94h.56l.41,1.43Z"/><path class="cls-2" d="M79.68,20a.77.77,0,0,1,.34.28.92.92,0,0,1,.15.4,2.07,2.07,0,0,1,0,.39H78.78a.45.45,0,0,0,.2.41.51.51,0,0,0,.28.07.41.41,0,0,0,.28-.09.34.34,0,0,0,.1-.13h.52a.59.59,0,0,1-.19.35.91.91,0,0,1-.72.28,1.07,1.07,0,0,1-.69-.24,1,1,0,0,1-.29-.77,1.1,1.1,0,0,1,.26-.78,1,1,0,0,1,.7-.26A1.06,1.06,0,0,1,79.68,20Zm-.76.43a.59.59,0,0,0-.13.3h.87a.42.42,0,0,0-.13-.3.44.44,0,0,0-.3-.11A.45.45,0,0,0,78.92,20.4Z"/><path class="cls-2" d="M80.93,21.25a.5.5,0,0,0,.07.19.47.47,0,0,0,.35.1.75.75,0,0,0,.24,0,.15.15,0,0,0,.09-.14.14.14,0,0,0-.07-.13,2.74,2.74,0,0,0-.53-.15,1.09,1.09,0,0,1-.47-.21.42.42,0,0,1-.13-.34.59.59,0,0,1,.21-.46.84.84,0,0,1,.59-.2,1.09,1.09,0,0,1,.6.15.6.6,0,0,1,.26.5h-.51a.34.34,0,0,0,0-.16.35.35,0,0,0-.29-.1.41.41,0,0,0-.23,0,.17.17,0,0,0-.08.12.14.14,0,0,0,.08.13,3.51,3.51,0,0,0,.53.14,1,1,0,0,1,.45.21.5.5,0,0,1,.15.37.59.59,0,0,1-.21.47,1.05,1.05,0,0,1-.67.18,1,1,0,0,1-.67-.19.61.61,0,0,1-.22-.49Z"/><path class="cls-2" d="M82.42,20.31V20h.27v-.54h.5V20h.31v.36h-.31v1a.24.24,0,0,0,0,.15.31.31,0,0,0,.18,0h.1v.38h-.24a.64.64,0,0,1-.49-.12.41.41,0,0,1-.08-.27V20.31Z"/><path class="cls-2" d="M86.31,19.93a.73.73,0,0,1,.22.18.64.64,0,0,1,.11.25,1.8,1.8,0,0,1,0,.28v1.23h-.52V20.63a.34.34,0,0,0,0-.18.25.25,0,0,0-.25-.14.3.3,0,0,0-.29.18.67.67,0,0,0,0,.22v1.16H85V20.71a.77.77,0,0,0,0-.25.26.26,0,0,0-.25-.14.31.31,0,0,0-.3.14.65.65,0,0,0,0,.24v1.17h-.51V19.93h.49v.28a.65.65,0,0,1,.18-.21.6.6,0,0,1,.38-.12.64.64,0,0,1,.36.1.61.61,0,0,1,.17.24.63.63,0,0,1,.25-.26.74.74,0,0,1,.34-.08A.8.8,0,0,1,86.31,19.93Z"/><path class="cls-2" d="M88.45,20a.74.74,0,0,1,.33.28,1.09,1.09,0,0,1,.16.4A2.25,2.25,0,0,1,89,21H87.54a.5.5,0,0,0,.2.41.51.51,0,0,0,.28.07.46.46,0,0,0,.29-.09.34.34,0,0,0,.1-.13h.52a.72.72,0,0,1-.19.35.94.94,0,0,1-.73.28,1,1,0,0,1-.68-.24.92.92,0,0,1-.3-.77,1.06,1.06,0,0,1,.27-.78,1,1,0,0,1,.69-.26A1.14,1.14,0,0,1,88.45,20Zm-.76.43a.52.52,0,0,0-.13.3h.87a.43.43,0,0,0-.14-.3.44.44,0,0,0-.3-.11A.41.41,0,0,0,87.69,20.4Z"/><path class="cls-2" d="M90.87,20a.66.66,0,0,1,.19.52v1.31h-.52V20.69a.7.7,0,0,0,0-.24.3.3,0,0,0-.29-.15.36.36,0,0,0-.35.22.85.85,0,0,0,0,.3v1.05h-.5V19.93h.49v.28a.62.62,0,0,1,.58-.33A.72.72,0,0,1,90.87,20Z"/><path class="cls-2" d="M91.36,20.31V20h.27v-.54h.5V20h.32v.36h-.32v1a.34.34,0,0,0,0,.15.36.36,0,0,0,.19,0h.1v.38h-.24a.64.64,0,0,1-.49-.12.37.37,0,0,1-.09-.27V20.31Z"/><path class="cls-2" d="M42.14,4.89v7H40.47v-.7h-3v4.39H35.77V11.2h-3V12h-1.6V4.89h4.61V2.45h1.68V4.89ZM35.77,9.56v-3h-3v3Zm4.7,0v-3h-3v3Z"/><path class="cls-2" d="M51.4,10.91A8.1,8.1,0,0,0,52,12.38a27.67,27.67,0,0,0-3.11,3,4.94,4.94,0,0,0-1-1.08,2.69,2.69,0,0,0,.82-1.84V8.37H47.23V6.77h3.12v5.08Zm-1.51-5a17.73,17.73,0,0,0-2.1-2.25l1-1A18.5,18.5,0,0,1,51,4.79Zm9.7,7.57v1.56H51.43V13.51h1V7.15H54v6.36h1.27V4.9H51.78V3.34h7.55V4.9H56.89V8.05h2.18V9.61H56.89v3.9Z"/><path class="cls-2" d="M68.2,3a24.7,24.7,0,0,1-1,2.49v10.2H65.77V8.08c-.32.48-.65.94-1,1.34A11,11,0,0,0,64,7.77a15.49,15.49,0,0,0,2.81-5.26Zm8.22,1.67V6H67.83V4.63h3.82A11.79,11.79,0,0,0,70.82,3l1.35-.54a11.25,11.25,0,0,1,1,1.86l-.76.35Zm-7.85,6.25h7.06v4.65h-1.4v-.39H69.91v.44H68.57Zm6.89-2.83H68.77V6.74h6.69Zm-6.69.73h6.69v1.31H68.77Zm1.14,3.43V13.8h4.32V12.21Z"/><path class="cls-2" d="M92.41,13.61c0,.9-.19,1.35-.72,1.6a6,6,0,0,1-2.57.3,6.51,6.51,0,0,0-.5-1.61c.75,0,1.63,0,1.87,0s.34-.08.34-.34V11.48H88v3.93H86.41V11.48H83.69A8.2,8.2,0,0,1,82,15.66a5.62,5.62,0,0,0-1.25-1.08c1.45-1.69,1.57-4.19,1.57-6.16v-5H92.41Zm-6-3.7V8.18H83.9v.25c0,.45,0,1,0,1.48ZM83.9,5V6.62h2.51V5Zm6.93,0H88V6.62h2.81Zm0,4.93V8.18H88V9.91Z"/></g></g></svg>