<?xml version="1.0" encoding="utf-8"?>
<!-- Generator: Adobe Illustrator 21.0.0, SVG Export Plug-In . SVG Version: 6.00 Build 0)  -->
<svg version="1.1" id="图层_1" xmlns="http://www.w3.org/2000/svg" xmlns:xlink="http://www.w3.org/1999/xlink" x="0px" y="0px"
	 viewBox="0 0 92.4 24" style="enable-background:new 0 0 92.4 24;" xml:space="preserve">
<style type="text/css">
	.st0{fill:#FFFFFF;}
</style>
<title>资源 2</title>
<g id="图层_2">
	<g id="图层_1-2">
		<path class="st0" d="M0,4.2h11.2V0H0V4.2z M0,12.7h11.2V8.4H0V12.7z M6.9,19.8H4.2v-4.1H0V24h11.2v-8.4H6.9V19.8z M17,8.4h-4.2V24
			H24v-4.2h-7V8.4z M12.8,0v4.2h7v4.2H24V0H12.8z M19.8,16.8H24v-4.2h-4.2L19.8,16.8z"/>
		<path class="st0" d="M31.5,19.5c0.5-0.5,1.3-0.4,1.7,0.1c0,0,0,0,0,0c0.1,0.1,0.2,0.3,0.2,0.5h-0.5c0-0.1-0.1-0.2-0.1-0.3
			c-0.1-0.1-0.3-0.2-0.4-0.2c-0.2,0-0.4,0.1-0.5,0.2c-0.1,0.2-0.2,0.4-0.2,0.7c0,0.2,0,0.5,0.2,0.7c0.1,0.1,0.3,0.2,0.5,0.2
			c0.2,0,0.3-0.1,0.4-0.2c0.1-0.1,0.1-0.2,0.1-0.3h0.5c0,0.3-0.2,0.5-0.4,0.7c-0.2,0.2-0.5,0.3-0.7,0.3c-0.3,0-0.7-0.1-0.9-0.4
			c-0.2-0.3-0.3-0.6-0.3-1C31.1,20.2,31.3,19.8,31.5,19.5z"/>
		<path class="st0" d="M35.3,19.9c0.1,0,0.2,0.1,0.2,0.2c0.1,0.1,0.1,0.1,0.1,0.2c0,0.1,0,0.3,0,0.4v1.1h-0.5v-1.2
			c0-0.1,0-0.2,0-0.3c-0.1-0.1-0.2-0.1-0.3-0.1c-0.1,0-0.2,0-0.3,0.1c-0.1,0.1-0.1,0.3-0.1,0.4v1h-0.5v-2.6h0.5v0.9
			c0.1-0.1,0.1-0.2,0.2-0.2c0.1,0,0.2-0.1,0.3-0.1C35.1,19.9,35.2,19.9,35.3,19.9z"/>
		<path class="st0" d="M36.7,19.7h-0.5v-0.5h0.5V19.7z M36.2,19.9h0.5v1.9h-0.5V19.9z"/>
		<path class="st0" d="M38.8,20c0.1,0.1,0.2,0.3,0.2,0.5v1.3h-0.5v-1.1c0-0.1,0-0.2,0-0.2c-0.1-0.1-0.2-0.2-0.3-0.1
			c-0.2,0-0.3,0.1-0.3,0.2c0,0.1,0,0.2,0,0.3v1h-0.6v-1.9h0.5v0.3c0.1-0.1,0.1-0.2,0.2-0.2c0.1-0.1,0.3-0.1,0.4-0.1
			C38.4,19.9,38.6,19.9,38.8,20z"/>
		<path class="st0" d="M40.2,20.7l0.2,0c0.1,0,0.1-0.1,0.1-0.1c0-0.1,0-0.1-0.1-0.2c-0.1,0-0.2,0-0.2,0c-0.1,0-0.2,0-0.2,0.1
			c0,0.1-0.1,0.1-0.1,0.2h-0.5c0-0.2,0-0.3,0.1-0.4c0.2-0.2,0.4-0.3,0.7-0.3c0.2,0,0.4,0,0.6,0.1c0.2,0.1,0.3,0.3,0.2,0.5v1.1
			c0,0,0,0.1,0,0.1c0,0,0,0.1,0.1,0.1v0.1h-0.6v-0.1c0,0,0-0.1,0-0.1c-0.1,0.1-0.2,0.1-0.2,0.2c-0.1,0.1-0.2,0.1-0.4,0.1
			c-0.2,0-0.3-0.1-0.4-0.1c-0.1-0.1-0.2-0.3-0.2-0.4c0-0.2,0.1-0.4,0.3-0.5c0.1-0.1,0.3-0.1,0.5-0.1L40.2,20.7z M40.6,20.9
			C40.5,20.9,40.5,20.9,40.6,20.9h-0.2h-0.1c-0.1,0-0.2,0-0.2,0.1c-0.1,0.1-0.1,0.3,0,0.4c0,0,0,0,0,0c0.1,0,0.1,0.1,0.2,0.1
			c0.1,0,0.2,0,0.3-0.1C40.6,21.3,40.6,21.1,40.6,20.9L40.6,20.9z"/>
		<path class="st0" d="M42.9,21.1c0,0.1,0,0.2,0.1,0.3c0.1,0.1,0.3,0.2,0.5,0.2c0.1,0,0.2,0,0.3,0c0.1,0,0.2-0.2,0.2-0.3
			c0-0.1,0-0.2-0.1-0.2c-0.1-0.1-0.2-0.1-0.4-0.1l-0.3-0.1c-0.2,0-0.4-0.1-0.6-0.2c-0.2-0.1-0.3-0.3-0.3-0.6c0-0.2,0.1-0.4,0.3-0.6
			c0.4-0.3,1-0.3,1.5,0c0.2,0.1,0.3,0.4,0.3,0.6h-0.5c0-0.1-0.1-0.3-0.2-0.3c-0.1,0-0.2-0.1-0.3-0.1c-0.1,0-0.2,0-0.3,0.1
			c-0.1,0.1-0.1,0.1-0.1,0.2c0,0.1,0,0.2,0.1,0.2c0.1,0,0.2,0.1,0.3,0.1l0.5,0.1c0.2,0,0.3,0.1,0.5,0.2c0.2,0.1,0.2,0.3,0.2,0.5
			c0,0.2-0.1,0.4-0.3,0.6C44,21.9,43.7,22,43.5,22c-0.3,0-0.6-0.1-0.8-0.2c-0.2-0.2-0.3-0.4-0.3-0.6L42.9,21.1z"/>
		<path class="st0" d="M46.2,20c0.1,0.1,0.3,0.2,0.3,0.3c0.1,0.1,0.1,0.3,0.2,0.4c0,0.1,0,0.3,0,0.4h-1.4c0,0.2,0.1,0.3,0.2,0.4
			c0.1,0.1,0.2,0.1,0.3,0.1c0.1,0,0.2,0,0.3-0.1c0,0,0.1-0.1,0.1-0.1h0.5c0,0.1-0.1,0.3-0.2,0.4c-0.2,0.2-0.5,0.3-0.7,0.3
			c-0.2,0-0.5-0.1-0.7-0.2c-0.2-0.2-0.3-0.5-0.3-0.8c0-0.3,0.1-0.6,0.3-0.8c0.2-0.2,0.4-0.3,0.7-0.3C45.9,19.9,46.1,19.9,46.2,20z
			 M45.5,20.4c-0.1,0.1-0.1,0.2-0.1,0.3h0.9c0-0.1-0.1-0.2-0.1-0.3c-0.1-0.1-0.2-0.1-0.3-0.1C45.7,20.3,45.6,20.3,45.5,20.4
			L45.5,20.4z"/>
		<path class="st0" d="M48.3,20.6c0-0.1,0-0.1-0.1-0.2c-0.1-0.1-0.2-0.1-0.3-0.1c-0.2,0-0.3,0.1-0.3,0.2c0,0.1,0,0.2,0,0.4
			c0,0.1,0,0.2,0,0.3c0,0.2,0.2,0.3,0.3,0.2c0.1,0,0.2,0,0.2-0.1c0.1-0.1,0.1-0.2,0.1-0.2h0.5c0,0.2-0.1,0.3-0.2,0.4
			c-0.2,0.2-0.4,0.3-0.7,0.3c-0.3,0-0.5-0.1-0.7-0.3c-0.2-0.2-0.2-0.5-0.2-0.7c0-0.3,0.1-0.6,0.2-0.8c0.2-0.2,0.4-0.3,0.7-0.3
			c0.2,0,0.4,0,0.6,0.2c0.2,0.1,0.3,0.4,0.3,0.6L48.3,20.6z"/>
		<path class="st0" d="M49.7,19.9v1.2c0,0.1,0,0.2,0,0.2c0,0.1,0.2,0.2,0.3,0.1c0.2,0,0.3-0.1,0.4-0.2c0-0.1,0-0.2,0-0.3v-1.1h0.5
			v1.9h-0.5v-0.3v0c0,0,0,0.1-0.1,0.1c-0.1,0.1-0.1,0.1-0.2,0.1c-0.1,0-0.2,0-0.3,0c-0.2,0-0.5-0.1-0.6-0.3
			c-0.1-0.2-0.1-0.3-0.1-0.5v-1.1H49.7z"/>
		<path class="st0" d="M52.5,19.9L52.5,19.9v0.5h-0.1c-0.2,0-0.3,0.1-0.4,0.2c0,0.1-0.1,0.2-0.1,0.4v0.9h-0.5v-2h0.5v0.3
			c0.1-0.1,0.1-0.2,0.2-0.3C52.2,19.9,52.3,19.9,52.5,19.9L52.5,19.9z"/>
		<path class="st0" d="M53.4,19.7h-0.5v-0.5h0.5V19.7z M52.9,19.9h0.5v1.9h-0.5V19.9z"/>
		<path class="st0" d="M53.7,20.3V20H54v-0.5h0.5V20h0.3v0.4h-0.3v1c0,0,0,0.1,0,0.1c0.1,0,0.1,0,0.2,0h0.1v0.4h-0.2
			c-0.2,0-0.3,0-0.5-0.1c-0.1-0.1-0.1-0.2,0-0.3v-1.2H53.7z"/>
		<path class="st0" d="M55.7,19.7h-0.5v-0.5h0.5V19.7z M55.2,19.9h0.5v1.9h-0.5V19.9z"/>
		<path class="st0" d="M57.5,20c0.1,0.1,0.3,0.2,0.3,0.3c0.1,0.1,0.1,0.3,0.2,0.4c0,0.1,0,0.2,0,0.3h-1.4c0,0.2,0.1,0.3,0.2,0.4
			c0.1,0,0.2,0.1,0.3,0.1c0.1,0,0.2,0,0.3-0.1c0,0,0.1-0.1,0.1-0.1H58c0,0.1-0.1,0.3-0.2,0.4c-0.2,0.2-0.5,0.3-0.7,0.3
			c-0.2,0-0.5-0.1-0.7-0.2c-0.2-0.2-0.3-0.5-0.3-0.8c0-0.3,0.1-0.6,0.3-0.8c0.2-0.2,0.4-0.3,0.7-0.3C57.2,19.9,57.4,19.9,57.5,20z
			 M56.8,20.4c-0.1,0.1-0.1,0.2-0.1,0.3h0.9c0-0.1-0.1-0.2-0.1-0.3c-0.1-0.1-0.2-0.1-0.3-0.1C57,20.3,56.9,20.3,56.8,20.4L56.8,20.4
			z"/>
		<path class="st0" d="M58.8,21.2c0,0.1,0,0.1,0.1,0.2c0.1,0.1,0.2,0.1,0.3,0.1c0.1,0,0.2,0,0.2,0c0.1,0,0.1-0.1,0.1-0.1
			c0-0.1,0-0.1-0.1-0.1c-0.2-0.1-0.3-0.1-0.5-0.1c-0.2,0-0.3-0.1-0.5-0.2c-0.1-0.1-0.1-0.2-0.1-0.3c0-0.2,0.1-0.3,0.2-0.5
			c0.2-0.1,0.4-0.2,0.6-0.2c0.2,0,0.4,0,0.6,0.1c0.2,0.1,0.3,0.3,0.3,0.5h-0.5c0-0.1,0-0.1,0-0.2c-0.1-0.1-0.2-0.1-0.3-0.1
			c-0.1,0-0.2,0-0.2,0c0,0-0.1,0.1-0.1,0.1c0,0.1,0,0.1,0.1,0.1c0.2,0.1,0.3,0.1,0.5,0.1c0.2,0,0.3,0.1,0.5,0.2
			c0.1,0.1,0.1,0.2,0.1,0.4c0,0.2-0.1,0.4-0.2,0.5c-0.4,0.2-0.9,0.2-1.3,0c-0.1-0.1-0.2-0.3-0.2-0.5L58.8,21.2z"/>
		<path class="st0" d="M61.7,19.5c0.2-0.2,0.5-0.3,0.8-0.3c0.4,0,0.8,0.1,1,0.4c0.1,0.1,0.2,0.3,0.2,0.5H63c0-0.1-0.1-0.2-0.1-0.3
			c-0.1-0.1-0.3-0.2-0.4-0.2c-0.2,0-0.4,0.1-0.5,0.2c-0.1,0.2-0.2,0.4-0.2,0.7c0,0.2,0,0.5,0.2,0.7c0.1,0.1,0.3,0.2,0.5,0.2
			c0.2,0,0.3-0.1,0.4-0.2c0.1-0.1,0.1-0.2,0.1-0.3h0.5c0,0.3-0.2,0.5-0.4,0.7C63,21.9,62.7,22,62.4,22c-0.3,0-0.7-0.1-0.9-0.4
			c-0.2-0.3-0.3-0.6-0.3-1C61.2,20.2,61.4,19.8,61.7,19.5z"/>
		<path class="st0" d="M65.1,19.9L65.1,19.9v0.5H65c-0.2,0-0.3,0.1-0.4,0.2c0,0.1-0.1,0.2-0.1,0.4v0.9H64v-2h0.5v0.3
			c0.1-0.1,0.1-0.2,0.2-0.3C64.8,19.9,64.9,19.9,65.1,19.9L65.1,19.9z"/>
		<path class="st0" d="M66.8,20c0.1,0.1,0.3,0.2,0.3,0.3c0.1,0.1,0.1,0.3,0.2,0.4c0,0.1,0,0.3,0,0.4h-1.4c0,0.2,0.1,0.3,0.2,0.4
			c0.1,0,0.2,0.1,0.3,0.1c0.1,0,0.2,0,0.3-0.1c0,0,0.1-0.1,0.1-0.1h0.5c0,0.1-0.1,0.3-0.2,0.4c-0.2,0.2-0.5,0.3-0.7,0.3
			c-0.3,0-0.5-0.1-0.7-0.2c-0.2-0.2-0.3-0.5-0.3-0.8c0-0.3,0.1-0.6,0.3-0.8c0.2-0.2,0.4-0.3,0.7-0.3C66.5,19.9,66.6,19.9,66.8,20z
			 M66,20.4c-0.1,0.1-0.1,0.2-0.1,0.3h0.9c0-0.1,0-0.2-0.1-0.3c-0.1-0.1-0.2-0.1-0.3-0.1C66.2,20.3,66.1,20.3,66,20.4z"/>
		<path class="st0" d="M68.7,20c0.1,0.1,0.2,0.1,0.2,0.2v-0.9h0.5v2.6h-0.5v-0.3c-0.1,0.1-0.1,0.2-0.2,0.2c-0.1,0.1-0.2,0.1-0.3,0.1
			c-0.2,0-0.4-0.1-0.6-0.3c-0.2-0.2-0.3-0.4-0.2-0.7c0-0.3,0.1-0.6,0.2-0.8c0.1-0.2,0.4-0.3,0.6-0.3C68.5,19.9,68.6,19.9,68.7,20z
			 M68.8,21.4c0.1-0.1,0.1-0.3,0.1-0.4c0-0.2,0-0.4-0.2-0.5c-0.1-0.1-0.2-0.1-0.2-0.1c-0.1,0-0.3,0.1-0.3,0.2
			c-0.1,0.1-0.1,0.3-0.1,0.4c0,0.1,0,0.3,0.1,0.4c0.1,0.1,0.2,0.2,0.3,0.2C68.6,21.5,68.7,21.5,68.8,21.4L68.8,21.4z"/>
		<path class="st0" d="M70.4,19.7h-0.5v-0.5h0.5V19.7z M69.9,19.9h0.5v1.9h-0.5V19.9z"/>
		<path class="st0" d="M70.8,20.3V20H71v-0.5h0.5V20h0.3v0.4h-0.3v1c0,0,0,0.1,0,0.1c0,0,0.1,0,0.2,0h0.1v0.4h-0.2
			c-0.2,0-0.4,0-0.5-0.1C71,21.7,71,21.6,71,21.5v-1.2H70.8z"/>
		<path class="st0" d="M73.7,21.9h-0.5v-2.6h0.5V21.9z"/>
		<path class="st0" d="M75.8,20c0.1,0.1,0.2,0.3,0.2,0.5v1.3h-0.5v-1.1c0-0.1,0-0.2,0-0.2c-0.1-0.1-0.2-0.2-0.3-0.1
			c-0.2,0-0.3,0.1-0.3,0.2c0,0.1-0.1,0.2-0.1,0.3v1h-0.6v-1.9h0.5v0.3c0-0.1,0.1-0.1,0.2-0.2c0.1-0.1,0.3-0.1,0.4-0.1
			C75.4,19.9,75.6,19.9,75.8,20z"/>
		<path class="st0" d="M77.6,19.9h0.5l-0.7,1.9h-0.5l-0.7-1.9h0.6l0.4,1.4L77.6,19.9z"/>
		<path class="st0" d="M79.7,20c0.1,0.1,0.3,0.2,0.3,0.3c0.1,0.1,0.1,0.3,0.2,0.4c0,0.1,0,0.3,0,0.4h-1.4c0,0.2,0.1,0.3,0.2,0.4
			c0.1,0,0.2,0.1,0.3,0.1c0.1,0,0.2,0,0.3-0.1c0,0,0.1-0.1,0.1-0.1h0.5c0,0.1-0.1,0.3-0.2,0.4c-0.2,0.2-0.5,0.3-0.7,0.3
			c-0.3,0-0.5-0.1-0.7-0.2c-0.2-0.2-0.3-0.5-0.3-0.8c0-0.3,0.1-0.6,0.3-0.8c0.2-0.2,0.4-0.3,0.7-0.3C79.4,19.9,79.5,19.9,79.7,20z
			 M78.9,20.4c-0.1,0.1-0.1,0.2-0.1,0.3h0.9c0-0.1,0-0.2-0.1-0.3c-0.1-0.1-0.2-0.1-0.3-0.1C79.1,20.3,79,20.3,78.9,20.4L78.9,20.4z"
			/>
		<path class="st0" d="M80.9,21.2c0,0.1,0,0.1,0.1,0.2c0.1,0.1,0.2,0.1,0.3,0.1c0.1,0,0.2,0,0.2,0c0.1,0,0.1-0.1,0.1-0.1
			c0-0.1,0-0.1-0.1-0.1c-0.2-0.1-0.3-0.1-0.5-0.1c-0.2,0-0.3-0.1-0.5-0.2c-0.1-0.1-0.1-0.2-0.1-0.3c0-0.2,0.1-0.3,0.2-0.5
			c0.2-0.1,0.4-0.2,0.6-0.2c0.2,0,0.4,0,0.6,0.1c0.2,0.1,0.3,0.3,0.3,0.5h-0.5c0-0.1,0-0.1,0-0.2c-0.1-0.1-0.2-0.1-0.3-0.1
			c-0.1,0-0.2,0-0.2,0c0,0-0.1,0.1-0.1,0.1c0,0.1,0,0.1,0.1,0.1c0.2,0.1,0.3,0.1,0.5,0.1c0.2,0,0.3,0.1,0.4,0.2
			c0.1,0.1,0.2,0.2,0.2,0.4c0,0.2-0.1,0.4-0.2,0.5c-0.2,0.1-0.4,0.2-0.7,0.2c-0.2,0-0.5,0-0.7-0.2c-0.1-0.1-0.2-0.3-0.2-0.5
			L80.9,21.2z"/>
		<path class="st0" d="M82.4,20.3V20h0.3v-0.5h0.5V20h0.3v0.4h-0.3v1c0,0,0,0.1,0,0.1c0.1,0,0.1,0,0.2,0h0.1v0.4h-0.2
			c-0.2,0-0.3,0-0.5-0.1c-0.1-0.1-0.1-0.2-0.1-0.3v-1.2H82.4z"/>
		<path class="st0" d="M86.3,19.9c0.1,0,0.2,0.1,0.2,0.2c0.1,0.1,0.1,0.2,0.1,0.2c0,0.1,0,0.2,0,0.3v1.2h-0.5v-1.2
			c0-0.1,0-0.1,0-0.2c0-0.1-0.1-0.2-0.2-0.1c-0.1,0-0.2,0.1-0.3,0.2c0,0.1,0,0.1,0,0.2v1.2H85v-1.2c0-0.1,0-0.2,0-0.2
			c0-0.1-0.1-0.1-0.2-0.1c-0.1,0-0.2,0-0.3,0.1c0,0.1,0,0.2,0,0.2v1.2h-0.5v-1.9h0.5v0.3c0-0.1,0.1-0.2,0.2-0.2
			c0.1-0.1,0.2-0.1,0.4-0.1c0.1,0,0.3,0,0.4,0.1c0.1,0.1,0.1,0.1,0.2,0.2c0.1-0.1,0.1-0.2,0.2-0.3c0.1-0.1,0.2-0.1,0.3-0.1
			C86.2,19.9,86.2,19.9,86.3,19.9z"/>
		<path class="st0" d="M88.4,20c0.1,0.1,0.3,0.2,0.3,0.3c0.1,0.1,0.1,0.3,0.2,0.4c0,0.1,0,0.2,0.1,0.3h-1.5c0,0.2,0.1,0.3,0.2,0.4
			c0.1,0,0.2,0.1,0.3,0.1c0.1,0,0.2,0,0.3-0.1c0,0,0.1-0.1,0.1-0.1h0.5c0,0.1-0.1,0.3-0.2,0.4c-0.2,0.2-0.5,0.3-0.7,0.3
			c-0.2,0-0.5-0.1-0.7-0.2c-0.2-0.2-0.3-0.5-0.3-0.8c0-0.3,0.1-0.6,0.3-0.8c0.2-0.2,0.4-0.3,0.7-0.3C88.2,19.9,88.3,19.9,88.4,20z
			 M87.7,20.4c-0.1,0.1-0.1,0.2-0.1,0.3h0.9c0-0.1-0.1-0.2-0.1-0.3c-0.1-0.1-0.2-0.1-0.3-0.1C87.9,20.3,87.8,20.3,87.7,20.4
			L87.7,20.4z"/>
		<path class="st0" d="M90.9,20c0.1,0.1,0.2,0.3,0.2,0.5v1.3h-0.5v-1.1c0-0.1,0-0.2,0-0.2c-0.1-0.1-0.2-0.2-0.3-0.1
			c-0.2,0-0.3,0.1-0.3,0.2c0,0.1,0,0.2,0,0.3v1h-0.5v-1.9h0.5v0.3c0.1-0.2,0.3-0.3,0.6-0.3C90.6,19.9,90.8,19.9,90.9,20z"/>
		<path class="st0" d="M91.4,20.3V20h0.3v-0.5h0.5V20h0.3v0.4h-0.3v1c0,0,0,0.1,0,0.1c0.1,0,0.1,0,0.2,0h0.1v0.4h-0.2
			c-0.2,0-0.3,0-0.5-0.1c-0.1-0.1-0.1-0.2-0.1-0.3v-1.2H91.4z"/>
		<path class="st0" d="M42.1,4.9v7h-1.7v-0.7h-3v4.4h-1.7v-4.4h-3V12h-1.6V4.9h4.6V2.5h1.7v2.4H42.1z M35.8,9.6v-3h-3v3H35.8z
			 M40.5,9.6v-3h-3v3H40.5z"/>
		<path class="st0" d="M51.4,10.9c0.2,0.5,0.4,1,0.6,1.5c-1.1,0.9-2.2,1.9-3.1,3c-0.3-0.4-0.6-0.8-1-1.1c0.5-0.5,0.8-1.1,0.8-1.8
			V8.4h-1.5V6.8h3.1v5.1L51.4,10.9z M49.9,5.9c-0.6-0.8-1.3-1.6-2.1-2.2l1-1C49.6,3.3,50.3,4,51,4.8L49.9,5.9z M59.6,13.5V15h-8.2
			v-1.5h1V7.2H54v6.4h1.3V4.9h-3.5V3.3h7.5v1.6h-2.4v3.2h2.2v1.6h-2.2v3.9L59.6,13.5z"/>
		<path class="st0" d="M68.2,3c-0.3,0.8-0.6,1.7-1,2.5v10.2h-1.4V8.1c-0.3,0.5-0.7,0.9-1,1.3c-0.2-0.6-0.5-1.1-0.8-1.7
			c1.3-1.6,2.2-3.3,2.8-5.3L68.2,3z M76.4,4.7V6h-8.6V4.6h3.8c-0.2-0.6-0.5-1.1-0.8-1.6l1.3-0.5c0.4,0.6,0.7,1.2,1,1.9l-0.8,0.3
			H76.4z M68.6,10.9h7.1v4.6h-1.4v-0.4h-4.3v0.4h-1.3V10.9z M75.5,8.1h-6.7V6.7h6.7V8.1z M68.8,8.8h6.7v1.3h-6.7V8.8z M69.9,12.2
			v1.6h4.3v-1.6L69.9,12.2z"/>
		<path class="st0" d="M92.4,13.6c0,0.9-0.2,1.4-0.7,1.6c-0.8,0.3-1.7,0.4-2.6,0.3c-0.1-0.6-0.3-1.1-0.5-1.6c0.8,0,1.6,0,1.9,0
			s0.3-0.1,0.3-0.3v-2.1H88v3.9h-1.6v-3.9h-2.7c-0.2,1.5-0.7,3-1.7,4.2c-0.4-0.4-0.8-0.8-1.2-1.1c1.4-1.7,1.6-4.2,1.6-6.2v-5h10.1
			V13.6z M86.4,9.9V8.2h-2.5v0.2c0,0.4,0,1,0,1.5H86.4z M83.9,5v1.6h2.5V5H83.9z M90.8,5H88v1.6h2.8L90.8,5z M90.8,9.9V8.2H88v1.7
			L90.8,9.9z"/>
	</g>
</g>
</svg>
